REM DIRINDEX 1\3,1\2\4,1\2\5,1\2\6
REM DIRNAME cjc137,folder01,folder02,folder03,folder04,folder05
TITLE ""
FILE "090.mp3" MP3
  TRACK 01 AUDIO
    TITLE "4:cjc137_3699"
    INDEX 01 00:00:00
  TRACK 02 AUDIO
    TITLE "0:"
    INDEX 01 00:01:21
  TRACK 03 AUDIO
    TITLE "6:cjc137_3700"
    INDEX 01 00:01:26
  TRACK 04 AUDIO
    TITLE "0:"
    INDEX 01 00:02:36
  TRACK 05 AUDIO
    TITLE "5:cjc137_3701"
    INDEX 01 00:02:43
  TRACK 06 AUDIO
    TITLE "0:"
    INDEX 01 00:03:63
  TRACK 07 AUDIO
    TITLE "4:cjc137_3702"
    INDEX 01 00:04:68
  TRACK 08 AUDIO
    TITLE "0:"
    INDEX 01 00:05:69
  TRACK 09 AUDIO
    TITLE "6:cjc137_3703"
    INDEX 01 00:06:02
  TRACK 10 AUDIO
    TITLE "0:"
    INDEX 01 00:07:00
  TRACK 11 AUDIO
    TITLE "5:cjc137_3704"
    INDEX 01 00:07:05
  TRACK 12 AUDIO
    TITLE "0:"
    INDEX 01 00:08:05
  TRACK 13 AUDIO
    TITLE "4:cjc137_3705"
    INDEX 01 00:09:14
  TRACK 14 AUDIO
    TITLE "0:"
    INDEX 01 00:10:39
  TRACK 15 AUDIO
    TITLE "6:cjc137_3706"
    INDEX 01 00:10:45
  TRACK 16 AUDIO
    TITLE "0:"
    INDEX 01 00:11:56
  TRACK 17 AUDIO
    TITLE "5:cjc137_3707"
    INDEX 01 00:11:64
  TRACK 18 AUDIO
    TITLE "0:"
    INDEX 01 00:13:12
  TRACK 19 AUDIO
    TITLE "4:cjc137_3708"
    INDEX 01 00:14:21
  TRACK 20 AUDIO
    TITLE "0:"
    INDEX 01 00:15:23
  TRACK 21 AUDIO
    TITLE "6:cjc137_3709"
    INDEX 01 00:15:30
  TRACK 22 AUDIO
    TITLE "0:"
    INDEX 01 00:16:42
  TRACK 23 AUDIO
    TITLE "5:cjc137_3710"
    INDEX 01 00:16:49
  TRACK 24 AUDIO
    TITLE "0:"
    INDEX 01 00:17:51
  TRACK 25 AUDIO
    TITLE "4:cjc137_3711"
    INDEX 01 00:18:58
  TRACK 26 AUDIO
    TITLE "0:"
    INDEX 01 00:20:06
  TRACK 27 AUDIO
    TITLE "6:cjc137_3712"
    INDEX 01 00:20:08
  TRACK 28 AUDIO
    TITLE "0:"
    INDEX 01 00:21:21
  TRACK 29 AUDIO
    TITLE "5:cjc137_3713"
    INDEX 01 00:21:27
  TRACK 30 AUDIO
    TITLE "0:"
    INDEX 01 00:22:48
  TRACK 31 AUDIO
    TITLE "4:cjc137_3714"
    INDEX 01 00:23:55
  TRACK 32 AUDIO
    TITLE "0:"
    INDEX 01 00:24:74
  TRACK 33 AUDIO
    TITLE "6:cjc137_3715"
    INDEX 01 00:25:07
  TRACK 34 AUDIO
    TITLE "0:"
    INDEX 01 00:26:30
  TRACK 35 AUDIO
    TITLE "5:cjc137_3716"
    INDEX 01 00:26:34
  TRACK 36 AUDIO
    TITLE "0:"
    INDEX 01 00:27:53
  TRACK 37 AUDIO
    TITLE "4:cjc137_3717"
    INDEX 01 00:28:62
  TRACK 38 AUDIO
    TITLE "0:"
    INDEX 01 00:30:14
  TRACK 39 AUDIO
    TITLE "6:cjc137_3718"
    INDEX 01 00:30:20
  TRACK 40 AUDIO
    TITLE "0:"
    INDEX 01 00:31:63
  TRACK 41 AUDIO
    TITLE "5:cjc137_3719"
    INDEX 01 00:31:71
  TRACK 42 AUDIO
    TITLE "0:"
    INDEX 01 00:33:22
  TRACK 43 AUDIO
    TITLE "4:cjc137_3720"
    INDEX 01 00:34:32
  TRACK 44 AUDIO
    TITLE "0:"
    INDEX 01 00:35:51
  TRACK 45 AUDIO
    TITLE "6:cjc137_3721"
    INDEX 01 00:35:55
  TRACK 46 AUDIO
    TITLE "0:"
    INDEX 01 00:37:03
  TRACK 47 AUDIO
    TITLE "5:cjc137_3722"
    INDEX 01 00:37:12
  TRACK 48 AUDIO
    TITLE "0:"
    INDEX 01 00:38:31
  TRACK 49 AUDIO
    TITLE "4:cjc137_3723"
    INDEX 01 00:39:39
  TRACK 50 AUDIO
    TITLE "0:"
    INDEX 01 00:40:44
  TRACK 51 AUDIO
    TITLE "6:cjc137_3724"
    INDEX 01 00:40:54
  TRACK 52 AUDIO
    TITLE "0:"
    INDEX 01 00:42:63
  TRACK 53 AUDIO
    TITLE "5:cjc137_3725"
    INDEX 01 00:42:68
  TRACK 54 AUDIO
    TITLE "0:"
    INDEX 01 00:43:74
  TRACK 55 AUDIO
    TITLE "4:cjc137_3726"
    INDEX 01 00:45:10
  TRACK 56 AUDIO
    TITLE "0:"
    INDEX 01 00:46:23
  TRACK 57 AUDIO
    TITLE "6:cjc137_3727"
    INDEX 01 00:46:35
  TRACK 58 AUDIO
    TITLE "0:"
    INDEX 01 00:47:48
  TRACK 59 AUDIO
    TITLE "5:cjc137_3728"
    INDEX 01 00:47:56
  TRACK 60 AUDIO
    TITLE "0:"
    INDEX 01 00:48:69
  TRACK 61 AUDIO
    TITLE "4:cjc137_3729"
    INDEX 01 00:50:05
  TRACK 62 AUDIO
    TITLE "0:"
    INDEX 01 00:51:11
  TRACK 63 AUDIO
    TITLE "6:cjc137_3730"
    INDEX 01 00:51:18
  TRACK 64 AUDIO
    TITLE "0:"
    INDEX 01 00:52:02
  TRACK 65 AUDIO
    TITLE "5:cjc137_3731"
    INDEX 01 00:52:14
  TRACK 66 AUDIO
    TITLE "0:"
    INDEX 01 00:53:21
  TRACK 67 AUDIO
    TITLE "4:cjc137_3732"
    INDEX 01 00:54:29
  TRACK 68 AUDIO
    TITLE "0:"
    INDEX 01 00:55:30
  TRACK 69 AUDIO
    TITLE "6:cjc137_3733"
    INDEX 01 00:55:34
  TRACK 70 AUDIO
    TITLE "0:"
    INDEX 01 00:56:29
  TRACK 71 AUDIO
    TITLE "5:cjc137_3734"
    INDEX 01 00:56:33
  TRACK 72 AUDIO
    TITLE "0:"
    INDEX 01 00:57:33
  TRACK 73 AUDIO
    TITLE "4:cjc137_3735"
    INDEX 01 00:58:42
  TRACK 74 AUDIO
    TITLE "0:"
    INDEX 01 00:59:57
  TRACK 75 AUDIO
    TITLE "6:cjc137_3736"
    INDEX 01 00:59:67
  TRACK 76 AUDIO
    TITLE "0:"
    INDEX 01 01:00:66
  TRACK 77 AUDIO
    TITLE "5:cjc137_3737"
    INDEX 01 01:00:74
  TRACK 78 AUDIO
    TITLE "0:"
    INDEX 01 01:02:16
  TRACK 79 AUDIO
    TITLE "4:cjc137_3738"
    INDEX 01 01:03:26
  TRACK 80 AUDIO
    TITLE "0:"
    INDEX 01 01:04:48
  TRACK 81 AUDIO
    TITLE "6:cjc137_3739"
    INDEX 01 01:04:52
  TRACK 82 AUDIO
    TITLE "0:"
    INDEX 01 01:05:62
  TRACK 83 AUDIO
    TITLE "5:cjc137_3740"
    INDEX 01 01:05:69
  TRACK 84 AUDIO
    TITLE "0:"
    INDEX 01 01:07:17
